<?xml version="1.0" encoding="UTF-8" standalone="no"?>
<svg
   xmlns:dc="http://purl.org/dc/elements/1.1/"
   xmlns:cc="http://creativecommons.org/ns#"
   xmlns:rdf="http://www.w3.org/1999/02/22-rdf-syntax-ns#"
   xmlns:svg="http://www.w3.org/2000/svg"
   xmlns="http://www.w3.org/2000/svg"
   xmlns:sodipodi="http://sodipodi.sourceforge.net/DTD/sodipodi-0.dtd"
   xmlns:inkscape="http://www.inkscape.org/namespaces/inkscape"
   width="60"
   height="80"
   viewBox="0 0 15.874999 21.166667"
   version="1.1"
   id="svg8"
   inkscape:version="0.92.3 (2405546, 2018-03-11)"
   sodipodi:docname="dienteNormal[inkscapever].svg">
  <defs
     id="defs2">
	
		
	
		
	
		
	
		
	
		
	
		
	
		
	
		
	
	
		
	
		
	
		
	
	
		
	
		
	
		
	
		
	
		
	
		
	
	
	
	
	
	
		
	
	
	
	
	
	
	
	
	
	
	
	
	
	
	
</defs>
  <sodipodi:namedview
     id="base"
     pagecolor="#ffffff"
     bordercolor="#666666"
     borderopacity="1.0"
     inkscape:pageopacity="0.0"
     inkscape:pageshadow="2"
     inkscape:zoom="4.2921382"
     inkscape:cx="87.868205"
     inkscape:cy="45.792418"
     inkscape:document-units="mm"
     inkscape:current-layer="layer1"
     showgrid="true"
     units="px"
     showguides="false"
     inkscape:window-width="1440"
     inkscape:window-height="837"
     inkscape:window-x="-8"
     inkscape:window-y="-8"
     inkscape:window-maximized="1"
     gridtolerance="10"
     inkscape:snap-text-baseline="false">
    <inkscape:grid
       type="xygrid"
       id="grid4500" />
  </sodipodi:namedview>
  <metadata
     id="metadata5">
    <rdf:RDF>
      <cc:Work
         rdf:about="">
        <dc:format>image/svg+xml</dc:format>
        <dc:type
           rdf:resource="http://purl.org/dc/dcmitype/StillImage" />
        <dc:title></dc:title>
      </cc:Work>
    </rdf:RDF>
  </metadata>
  <g
     inkscape:label="Capa 1"
     inkscape:groupmode="layer"
     id="layer1"
     transform="translate(0,-275.83332)"
     style="display:inline">
    <path
       style="fill:#ffffff;stroke:#000000;stroke-width:0.2;stroke-linecap:round;stroke-linejoin:round;stroke-opacity:1;paint-order:markers fill stroke"
       d="m 3.0876671,280.7124 c -0.021873,0.0176 -0.1107424,0.0958 -0.1415934,0.12196 0.02037,-0.0159 0.039379,-0.0329 0.059944,-0.0486 z m 1.6435039,7.94315 c -0.6027424,-0.58962 -0.9960673,-1.35471 -1.0270041,-2.24527 0.00169,-0.7902 0.2921288,-1.55921 0.8288898,-2.19469 -0.09197,-0.18513 -0.1767369,-0.35501 -0.273885,-0.55088 -0.6054648,-1.22076 -0.9429845,-1.98358 -1.3229167,-2.82205 -1.766234,1.3791 -2.79123037,3.41612 -2.79311101,5.56762 -4.237e-5,2.25961 1.10513171,4.27849 2.83858631,5.61206 0.3622349,-0.80054 0.9345491,-1.78709 1.5161864,-2.95981 z"
       id="z3"
       inkscape:connector-curvature="0"
       sodipodi:nodetypes="ccccccccccccc" />
    <path
       style="fill:#ffffff;stroke:#000000;stroke-width:0.2;stroke-linecap:round;stroke-linejoin:round;stroke-miterlimit:4;stroke-dasharray:none;stroke-opacity:1;paint-order:markers fill stroke"
       d="m 7.9530029,276.53105 c -5.9975374,-0.0829 -6.8586929,0.15234 -5.0167481,4.21732 a 7.7945373,7.2707428 0 0 1 0.1560629,-0.12764 7.7945373,7.2707428 0 0 1 0.633553,-0.42272 7.7945373,7.2707428 0 0 1 0.6759278,-0.36173 7.7945373,7.2707428 0 0 1 0.7110677,-0.29714 7.7945373,7.2707428 0 0 1 0.7394898,-0.22893 7.7945373,7.2707428 0 0 1 0.7601603,-0.15916 7.7945373,7.2707428 0 0 1 0.7735962,-0.0873 7.7945373,7.2707428 0 0 1 0.5513874,-0.0186 7.7945373,7.2707428 0 0 1 0.778247,0.0367 7.7945373,7.2707428 0 0 1 0.7704958,0.10852 7.7945373,7.2707428 0 0 1 0.7544753,0.17984 7.7945373,7.2707428 0 0 1 0.732255,0.24908 7.7945373,7.2707428 0 0 1 0.70125,0.31626 7.7945373,7.2707428 0 0 1 0.664559,0.37982 7.7945373,7.2707428 0 0 1 0.607715,0.43098 c 1.848567,-3.8901 0.942092,-4.13324 -4.9934941,-4.21525 z"
       id="z1"
       inkscape:connector-curvature="0" />
    <ellipse
       style="fill:#ffffff;stroke:#000000;stroke-width:0.2;stroke-linecap:round;stroke-linejoin:round;stroke-opacity:1;paint-order:markers fill stroke"
       id="z4"
       cx="7.9769149"
       cy="286.38959"
       rx="4.2333331"
       ry="3.7041669" />
    <path
       inkscape:connector-curvature="0"
       id="z7"
       d="m 7.9170143,296.23764 c -5.997537,0.0829 -6.858693,-0.15234 -5.016748,-4.21732 a 7.7945373,7.2707428 0 0 0 0.156063,0.12764 7.7945373,7.2707428 0 0 0 0.633553,0.42272 7.7945373,7.2707428 0 0 0 0.675928,0.36173 7.7945373,7.2707428 0 0 0 0.711068,0.29714 7.7945373,7.2707428 0 0 0 0.739489,0.22893 7.7945373,7.2707428 0 0 0 0.760161,0.15916 7.7945373,7.2707428 0 0 0 0.773596,0.0873 7.7945373,7.2707428 0 0 0 0.551387,0.0186 7.7945373,7.2707428 0 0 0 0.778247,-0.0367 7.7945373,7.2707428 0 0 0 0.770496,-0.10852 7.7945373,7.2707428 0 0 0 0.7544757,-0.17984 7.7945373,7.2707428 0 0 0 0.732255,-0.24908 7.7945373,7.2707428 0 0 0 0.701249,-0.31626 7.7945373,7.2707428 0 0 0 0.664559,-0.37982 7.7945373,7.2707428 0 0 0 0.607715,-0.43098 c 1.848567,3.8901 0.942092,4.13324 -4.9934937,4.21525 z"
       style="fill:#ffffff;stroke:#000000;stroke-width:0.2;stroke-linecap:round;stroke-linejoin:round;stroke-miterlimit:4;stroke-dasharray:none;stroke-opacity:1;paint-order:markers fill stroke" />
    <path
       inkscape:connector-curvature="0"
       id="z2"
       d="m 7.9374997,279.13945 a 7.7945373,7.2707428 0 0 0 -0.551387,0.0186 7.7945373,7.2707428 0 0 0 -0.773596,0.0873 7.7945373,7.2707428 0 0 0 -0.760161,0.15916 7.7945373,7.2707428 0 0 0 -0.739489,0.22893 7.7945373,7.2707428 0 0 0 -0.711068,0.29714 7.7945373,7.2707428 0 0 0 -0.675928,0.36173 7.7945373,7.2707428 0 0 0 -0.633553,0.42272 7.7945373,7.2707428 0 0 0 -0.156063,0.12764 c 0.379932,0.83847 0.717452,1.60129 1.322917,2.82205 0.09715,0.19587 0.181919,0.36574 0.273885,0.55087 a 4.233333,3.7041669 0 0 1 3.404443,-1.50947 4.233333,3.7041669 0 0 1 3.3522513,1.44591 c 0.06956,-0.13245 0.131785,-0.24973 0.204121,-0.38758 0.663258,-1.26395 1.048053,-2.07248 1.452625,-2.92385 a 7.7945373,7.2707428 0 0 0 -0.607715,-0.43098 7.7945373,7.2707428 0 0 0 -0.664559,-0.37982 7.7945373,7.2707428 0 0 0 -0.701249,-0.31626 7.7945373,7.2707428 0 0 0 -0.732255,-0.24908 7.7945373,7.2707428 0 0 0 -0.7544763,-0.17984 7.7945373,7.2707428 0 0 0 -0.770496,-0.10852 7.7945373,7.2707428 0 0 0 -0.778247,-0.0367 z"
       style="fill:#ffffff;stroke:#000000;stroke-width:0.2;stroke-linecap:round;stroke-linejoin:round;stroke-miterlimit:4;stroke-dasharray:none;stroke-opacity:1;paint-order:markers fill stroke" />
    <path
       style="fill:#ffffff;stroke:#000000;stroke-width:0.2;stroke-linecap:round;stroke-linejoin:round;stroke-miterlimit:4;stroke-dasharray:none;stroke-opacity:1;paint-order:markers fill stroke"
       d="m 7.941609,293.66813 c -0.1766857,-1.3e-4 -0.3533112,-0.006 -0.5295449,-0.0186 -0.2489942,-0.0171 -0.4969545,-0.0462 -0.7429516,-0.0873 -0.245929,-0.0412 -0.4895828,-0.0943 -0.7300488,-0.15916 -0.2405131,-0.0648 -0.4775411,-0.14117 -0.7101957,-0.22893 -0.2325912,-0.0879 -0.4605094,-0.1871 -0.6829005,-0.29714 -0.2224584,-0.10999 -0.4391132,-0.23072 -0.6491525,-0.36173 -0.2099454,-0.13097 -0.4130176,-0.27205 -0.6084561,-0.42272 -0.050541,-0.0419 -0.1005061,-0.0845 -0.1498809,-0.12764 0.3648818,-0.83847 0.6890316,-1.60129 1.2705124,-2.82205 0.093302,-0.19587 0.1747126,-0.36574 0.2630356,-0.55087 0.7649704,0.94761 1.9784799,1.50785 3.269583,1.50947 1.2612183,-9.2e-4 2.450553,-0.53507 3.219458,-1.44591 0.06681,0.13245 0.126565,0.24973 0.196036,0.38758 0.636984,1.26395 1.006536,2.07248 1.395082,2.92385 -0.187183,0.15283 -0.381964,0.29667 -0.583642,0.43098 -0.206091,0.13686 -0.419101,0.26363 -0.638234,0.37982 -0.218923,0.11626 -0.443694,0.22181 -0.67347,0.31626 -0.229993,0.0944 -0.464702,0.1775 -0.703248,0.24908 -0.2382938,0.0716 -0.4801253,0.13166 -0.7245891,0.17984 -0.2446411,0.0481 -0.4916078,0.0843 -0.7399745,0.10852 -0.2483537,0.0243 -0.4978048,0.0366 -0.7474184,0.0367 z"
       id="z6"
       inkscape:connector-curvature="0"
       sodipodi:nodetypes="ccccccccccccccccccccccc" />
    <path
       sodipodi:nodetypes="ccccccccccccc"
       inkscape:connector-curvature="0"
       id="z5"
       d="m 12.804571,280.7124 c 0.02187,0.0176 0.110742,0.0958 0.141593,0.12196 -0.02037,-0.0159 -0.03938,-0.0329 -0.05994,-0.0486 z m -1.643504,7.94315 c 0.602742,-0.58962 0.996067,-1.35471 1.027004,-2.24527 -0.0017,-0.7902 -0.292129,-1.55921 -0.82889,-2.19469 0.09197,-0.18513 0.176737,-0.35501 0.273885,-0.55088 0.605465,-1.22076 0.942985,-1.98358 1.322917,-2.82205 1.766234,1.3791 2.79123,3.41612 2.793111,5.56762 4.2e-5,2.25961 -1.105132,4.27849 -2.838586,5.61206 -0.362235,-0.80054 -0.934549,-1.78709 -1.516187,-2.95981 z"
       style="fill:#ffffff;stroke:#000000;stroke-width:0.2;stroke-linecap:round;stroke-linejoin:round;stroke-opacity:1;paint-order:markers fill stroke" />
    <text
       xml:space="preserve"
       style="font-style:normal;font-weight:normal;line-height:0%;font-family:sans-serif;letter-spacing:0px;word-spacing:0px;opacity:1;fill:#ff0000;fill-opacity:1;stroke:none;stroke-width:0.18750001;stroke-linecap:butt;stroke-linejoin:miter;stroke-miterlimit:4;stroke-dasharray:none;stroke-opacity:1"
       x="1.2096956"
       y="248.22733"
       id="dienteExodoncia"
       transform="scale(0.84015752,1.190253)">			 <tspan
   sodipodi:role="line"
   id="tspan3351"
   x="1.2096956"
   y="248.22733"
   style="font-size:27.84042168px;line-height:1.25">x</tspan>		</text>
    <text
       xml:space="preserve"
       style="font-style:normal;font-weight:normal;line-height:0%;font-family:sans-serif;letter-spacing:0px;word-spacing:0px;fill:#ff0000;fill-opacity:1;stroke:none;stroke-width:1px;stroke-linecap:butt;stroke-linejoin:miter;stroke-opacity:1"
       x="1.7418071"
       y="257.80377"
       id="dientePErupcionado"
       transform="scale(0.87240099,1.1462619)">			 <tspan
   sodipodi:role="line"
   id="tspan4155"
   x="1.7418071"
   y="257.80377"
   style="font-size:21.57991409px;line-height:1.25">A</tspan>		</text>
    <g
       transform="matrix(0.87240098,0,0,1.1462619,18.457225,0.71356312)"
       style="font-style:normal;font-weight:normal;font-size:21.57991409px;line-height:125%;font-family:sans-serif;letter-spacing:0px;word-spacing:0px;fill:#ff0000;fill-opacity:1;stroke:none;stroke-width:1px;stroke-linecap:butt;stroke-linejoin:miter;stroke-opacity:1"
       id="dienteErupcion">
      <path
         d="m -4.9563765,257.0925 h -2.2233212 l -2.1683664,-6.14786 -5.5125589,-0.0102 -2.18177,6.15806 h -2.11795 l 5.71109,-15.68969 h 2.781786 z m -4.4044941,-6.16419 -2.7501744,-7.70259 -2.760712,7.70259 z"
         id="path4176"
         inkscape:connector-curvature="0"
         sodipodi:nodetypes="ccccccccccccc" />
    </g>
    <text
       xml:space="preserve"
       style="font-style:normal;font-weight:normal;line-height:0%;font-family:sans-serif;letter-spacing:0px;word-spacing:0px;fill:#ff0000;fill-opacity:1;stroke:none;stroke-width:1px;stroke-linecap:butt;stroke-linejoin:miter;stroke-opacity:1"
       x="-0.78114784"
       y="-282.60104"
       id="dienteProvicional"
       transform="scale(1.0190898,-0.98126781)">			 <tspan
   sodipodi:role="line"
   id="tspan4180"
   x="-0.78114784"
   y="-282.60104"
   style="font-size:25.53623962px;line-height:1.25">P</tspan>		</text>
    <text
       xml:space="preserve"
       style="font-style:normal;font-weight:normal;line-height:0%;font-family:sans-serif;letter-spacing:0px;word-spacing:0px;fill:#ff0700;fill-opacity:1;stroke:none;stroke-width:1px;stroke-linecap:butt;stroke-linejoin:miter;stroke-opacity:1"
       x="12.933396"
       y="159.4023"
       id="dienteExtraido"
       transform="scale(0.53928281,1.8543146)">			 <tspan
   sodipodi:role="line"
   id="tspan4184"
   x="12.933396"
   y="159.4023"
   style="font-size:13.01118088px;line-height:1.25">l</tspan>		</text>
    <path
       style="opacity:1;fill:#0000ff;fill-opacity:1;stroke-width:0.70866144;stroke-miterlimit:4;stroke-dasharray:none"
       d="m 0.24094353,285.62428 0.0231796,0.39619 H 15.563986 l -0.02318,-0.39619 H 0.24094247 Z m 0.0705856,1.18856 0.0231796,0.39619 H 15.634057 l -0.02318,-0.39619 H 0.3115281 Z"
       id="dienteProtesisTotal"
       inkscape:connector-curvature="0" />
    <path
       style="opacity:0.98000004;fill:#ff8500;fill-opacity:1;stroke-width:0.70866144;stroke-miterlimit:4;stroke-dasharray:none"
       d="m 0.24094052,285.62428 0.02318,0.39619 H 15.563984 l -0.02318,-0.39619 H 0.24094152 Z m 0.07059,1.18856 0.02318,0.39619 H 15.634059 l -0.02318,-0.39619 z"
       id="dienteProtesisRemovible"
       inkscape:connector-curvature="0" />
    <path
       style="opacity:0.98000004;fill:#00be2b;fill-opacity:1;stroke:none;stroke-width:0.70866144;stroke-miterlimit:4;stroke-dasharray:none"
       d="m 0.2267352,286.1361 v 0.56111 h 4.1255803 v -0.56111 z m 11.2959478,0 v 0.56111 h 4.125581 v -0.56111 z"
       id="dienteSinErupcionar"
       inkscape:connector-curvature="0" />
    <text
       xml:space="preserve"
       style="font-style:normal;font-weight:normal;line-height:0%;font-family:sans-serif;letter-spacing:0px;word-spacing:0px;fill:#0000ff;fill-opacity:1;stroke:none;stroke-width:1px;stroke-linecap:butt;stroke-linejoin:miter;stroke-opacity:1"
       x="0.12967761"
       y="284.71082"
       id="dienteSellante"
       transform="scale(0.9642996,1.0370221)">			 <tspan
   sodipodi:role="line"
   id="tspan4299"
   x="0.12967761"
   y="284.71082"
   style="font-size:23.43538284px;line-height:1.25">S</tspan>		</text>
    <path
       style="opacity:1;fill:#81817e;fill-opacity:1;stroke:none;stroke-width:0.15277502;stroke-miterlimit:4;stroke-dasharray:none;stroke-opacity:1"
       d="m 5.4080217,276.31306 1.1210044,1.32354 v 15.65756 h 2.6400825 v -15.44847 l 0.033517,-0.0396 1.2643524,-1.49308 H 7.9377576 5.4080217 Z m 1.180818,17.00314 0.6301136,1.53943 0.6301145,1.53941 0.6301135,-1.53941 0.6301135,-1.53943 h -1.260227 z"
       id="dienteImplante"
       inkscape:connector-curvature="0" />
    <text
       id="_x7B_TEXTO_x7D_"
       transform="scale(0.84017855,1.1902232)"
       display="none"
       enable-background="new    "
       font-size="125.2428"
       style="font-size:27.8411274px;line-height:0%;font-family:HelveticaNeue-HeavyCondObl;display:none;fill:#ff0000;stroke-width:0.22229724"
       x="52.842651"
       y="246.85532">x</text>
    <text
       transform="scale(0.87241045,1.1462495)"
       font-size="93.4913"
       id="text774"
       style="font-size:21.58015442px;line-height:0%;font-family:HelveticaNeue-HeavyCondObl;fill:#ff0000;stroke-width:0.23082526"
       x="51.466812"
       y="256.37616"></text>
    <text
       transform="scale(0.87241045,1.1462495)"
       font-size="93.4913"
       id="text778"
       style="font-size:21.58015442px;line-height:0%;font-family:HelveticaNeue-HeavyCondObl;fill:#ff0000;stroke-width:0.23082526"
       x="63.8531"
       y="256.37616"></text>
    <text
       transform="scale(1.0190682,0.98128859)"
       font-size="94.707"
       id="text782"
       style="font-size:25.53570175px;line-height:0%;font-family:HelveticaNeue-HeavyCondObl;fill:#ff0000;stroke-width:0.26962847"
       x="41.787888"
       y="299.48953"></text>
    <text
       transform="scale(1.0190682,0.98128859)"
       font-size="94.707"
       id="text786"
       style="font-size:25.53570175px;line-height:0%;font-family:HelveticaNeue-HeavyCondObl;fill:#ff0000;stroke-width:0.26962847"
       x="55.986156"
       y="299.48953"></text>
    <text
       transform="scale(0.53925874,1.8543974)"
       font-size="91.188"
       id="text788"
       style="font-size:13.010602px;line-height:0%;font-family:HelveticaNeue-HeavyCondObl;fill:#ff0700;stroke-width:0.14267887"
       x="93.379539"
       y="158.51138"></text>
    <text
       transform="scale(0.53925874,1.8543974)"
       font-size="91.188"
       id="text792"
       style="font-size:13.010602px;line-height:0%;font-family:HelveticaNeue-HeavyCondObl;fill:#ff0700;stroke-width:0.14267887"
       x="96.762566"
       y="158.51138"></text>
    <path
       style="fill:#3791d3;stroke-width:0.26458332"
       inkscape:connector-curvature="0"
       id="dienteProtesisTotalInferior"
       d="m 15.689791,280.09311 c -0.07938,0 -0.132291,0.0529 -0.132291,0.13229 0,1.64042 -3.122083,3.46605 -7.62,3.46605 -4.497917,0 -7.62,-1.82563 -7.62,-3.46605 0,-0.0794 -0.05292,-0.13229 -0.132292,-0.13229 -0.07937,0 -0.132291,0.0529 -0.132291,0.13229 v 8.78417 c 0,1.98438 3.677708,3.73063 7.884583,3.73063 4.206875,0 7.884583,-1.74625 7.884583,-3.73063 v -8.78417 c 0,-0.0794 -0.07938,-0.13229 -0.132292,-0.13229 z M 7.9375,292.47561 c -4.497917,0 -7.62,-1.82562 -7.62,-3.46604 v -7.85812 c 0.899583,1.5875 4.074583,2.83104 7.62,2.83104 3.545417,0 6.693958,-1.24354 7.62,-2.83104 v 7.85812 c 0,1.61396 -3.122083,3.46604 -7.62,3.46604 z" />
    <path
       style="fill:#3791d3;stroke-width:0.26458332"
       inkscape:connector-curvature="0"
       id="dienteProtesisTotalSuperior"
       d="m 7.9506554,278.28072 c 4.2068746,0 7.6199996,3.41312 7.6199996,7.62 v 8.65187 H 0.33065542 v -8.65187 c 0,-4.20688 3.41312498,-7.62 7.61999998,-7.62 m 0,-0.26459 c -4.339167,0 -7.88458298,3.51896 -7.88458298,7.88459 v 8.91646 H 15.80878 v -8.91646 c 0.02646,-4.36563 -3.518958,-7.88459 -7.8581246,-7.88459 z" />
    <path
       style="fill:#db2828;stroke-width:0.26458332"
       inkscape:connector-curvature="0"
       id="dienteProtesisRemovible_1_"
       d="m 15.689791,289.1154 c -1.481666,0 -2.698749,-1.21708 -2.698749,-2.69875 0,-1.48166 1.217083,-2.69875 2.698749,-2.69875 0.07937,0 0.132292,-0.0529 0.132292,-0.13229 0,-0.0794 -0.05292,-0.13229 -0.132292,-0.13229 H 0.185208 c -0.07937,0 -0.132291,0.0529 -0.132291,0.13229 0,0.0794 0.05292,0.13229 0.132291,0.13229 1.455209,0 3.704167,1.21709 3.704167,2.69875 0,1.48167 -2.248958,2.69875 -3.704167,2.69875 -0.07937,0 -0.132291,0.0529 -0.132291,0.1323 0,0.0794 0.05292,0.13229 0.132291,0.13229 h 15.504583 c 0.07937,0 0.132292,-0.0529 0.132292,-0.13229 0,-0.0794 -0.05292,-0.1323 -0.132292,-0.1323 z m -14.102291,0 c 1.296458,-0.44979 2.592917,-1.4552 2.592917,-2.69875 0,-1.24354 -1.296459,-2.24895 -2.592917,-2.69875 h 12.885208 c -1.031875,0.47625 -1.74625,1.50813 -1.74625,2.69875 0,1.19063 0.714375,2.2225 1.74625,2.69875 z" />
    <text
       id="_x7B_TEXTO_x7D__1_"
       transform="scale(0.96431323,1.0370074)"
       display="none"
       enable-background="new    "
       font-size="91.8539"
       style="font-size:23.43571472px;line-height:0%;font-family:HelveticaNeue-HeavyCondObl;display:none;fill:#0000ff;stroke-width:0.2551412"
       x="45.115925"
       y="283.13403">S</text>
    <g
       id="dienteTorus"
       transform="matrix(0.26458333,0,0,0.26458333,-0.01322907,202.84801)">
		<path
   style="fill:#db2828"
   inkscape:connector-curvature="0"
   d="m 17.9,345.7 h 4.6 v -55.2 h -5.4 l -5,7.1 H 1.7 l 5,-20.4 h 46.7 l 5,20.4 H 47.9 l -5,-7.1 h -5.5 v 55.2 h 5.5 v 8.8 h -25 z"
   id="path803" />

	</g>
    <polygon
       style="fill:#3791d3"
       id="dienteOrtodoncia"
       points="17.6,332.1 26.3,332.1 26.3,318.7 33.7,318.7 33.7,332.1 42.4,332.1 42.4,319.9 51.1,319.9 51.1,332.1 59.8,332.1 59.8,299.6 51.1,299.6 51.1,311.8 42.4,311.8 42.4,299.6 33.7,299.6 33.7,313 26.3,313 26.3,299.6 17.6,299.6 17.6,311.8 8.9,311.8 8.9,299.6 0.2,299.6 0.2,332.1 8.9,332.1 8.9,319.9 17.6,319.9 "
       transform="matrix(0.26458333,0,0,0.26458333,1.0000001e-7,202.84801)" />
    <g
       id="dienteImplante_1_"
       transform="matrix(0.26458333,0,0,0.26458333,9.9999997e-8,202.83478)">
		<rect
   style="fill:#3791d3"
   x="13.6"
   y="275.89999"
   width="32.799999"
   height="8.8000002"
   id="rect807" />

		<rect
   style="fill:#3791d3"
   x="13.6"
   y="287.70001"
   width="32.799999"
   height="8.8000002"
   id="rect809" />

		<rect
   style="fill:#3791d3"
   x="13.6"
   y="299.60001"
   width="32.799999"
   height="8.8000002"
   id="rect811" />

		<rect
   style="fill:#3791d3"
   x="13.6"
   y="311.5"
   width="32.799999"
   height="8.8000002"
   id="rect813" />

		<rect
   style="fill:#3791d3"
   x="13.6"
   y="323.29999"
   width="32.799999"
   height="8.8000002"
   id="rect815" />

		<rect
   style="fill:#3791d3"
   x="13.6"
   y="335.20001"
   width="32.799999"
   height="8.8000002"
   id="rect817" />

		<rect
   style="fill:#3791d3"
   x="13.6"
   y="347.10001"
   width="32.799999"
   height="8.8000002"
   id="rect819" />

	</g>
    <path
       style="fill:#113f56;stroke-width:0.26458332"
       inkscape:connector-curvature="0"
       id="dienteGiroversion"
       d="m 9.723434,281.91874 c -4.1275,0 -7.672916,0.82021 -9.36625,2.03729 -0.105833,0.0794 -0.15875,0.18521 -0.185208,0.3175 -0.02646,0.3175 -0.105833,0.92604 -0.105833,1.45521 0,0.52916 0.05292,1.13771 0.105833,1.45521 0.02646,0.13229 0.07937,0.26458 0.185208,0.34395 1.693334,1.19063 5.23875,2.0373 9.339792,2.0373 0.9525,0 1.852083,-0.0529 2.725208,-0.1323 l 0.05292,1.48167 2.936875,-2.54 -3.095625,-2.38125 0.05292,1.64042 c -0.846667,0.0794 -1.74625,0.13229 -2.672292,0.13229 -4.101042,0 -7.646458,-0.82021 -9.339792,-2.01083 1.693334,-1.19063 5.23875,-2.01084 9.339792,-2.01084 2.275417,0 4.392083,0.26459 6.111875,0.68792 v -0.10583 -1.66688 c -1.693334,-0.50271 -3.81,-0.74083 -6.085417,-0.74083 z" />
    <path
       style="fill:#3791d3;stroke-width:0.26458332"
       inkscape:connector-curvature="0"
       id="dienteProtesisFija_1_"
       d="M 13.110104,283.57238 H 2.738438 c -1.481667,0 -2.69875,1.21709 -2.69875,2.69875 v 0.29105 c 0,1.48166 1.217083,2.69875 2.69875,2.69875 h 10.398125 c 1.481666,0 2.698749,-1.19063 2.698749,-2.69875 v -0.29105 c -0.02646,-1.48166 -1.243541,-2.69875 -2.725208,-2.69875 z m 0.396875,0.3175 -1.031875,5.10646 h -1.217083 l 1.031875,-5.13291 h 0.820208 c 0.132292,-0.0265 0.264583,0 0.396875,0.0265 z m -7.14375,-0.0529 h 1.217084 l -1.031875,5.13291 H 5.331354 Z m -1.322916,5.15937 H 3.823229 l 1.031875,-5.13291 h 1.217084 z m 2.804583,-5.15937 h 1.217083 l -1.031875,5.13291 H 6.813021 Z m 1.481667,0 h 1.217083 l -1.031875,5.13291 H 8.294688 Z m 1.481666,0 h 1.217084 l -1.031875,5.13291 H 9.776354 Z m -10.503958,2.72521 v -0.29105 c 0,-1.34937 1.084792,-2.43416 2.434167,-2.43416 h 0.396875 l -1.031875,5.05354 c -1.031875,-0.26458 -1.799167,-1.21708 -1.799167,-2.32833 z m 2.037292,2.38125 1.031875,-5.10646 h 1.217083 l -1.031875,5.13291 H 2.738438 c -0.132292,0.0265 -0.264584,0 -0.396875,-0.0264 z m 13.202708,-2.38125 c 0,1.34937 -1.084792,2.43416 -2.434167,2.43416 h -0.396875 l 1.031875,-5.05354 c 1.031875,0.29104 1.799167,1.21708 1.799167,2.32833 z" />
    <path
       style="fill:#3791d3;stroke-width:0.26458332"
       inkscape:connector-curvature="0"
       id="dienteTratamientodeConductoEndodoncia"
       d="M 8.268229,296.98676 H 7.606771 v -5.82083 h 0.661458 z m 0,-7.11729 H 7.606771 v -6.35 h 0.661458 z m 0,-7.67292 H 7.606771 v -6.35 h 0.661458 z" />
    <g
       id="sarrooCalculoDental"
       transform="matrix(0.26458333,0,0,0.26458333,9.9999998e-8,202.84801)">
		<polygon
   style="fill:#db2828"
   points="17,298.9 34,332.8 0.1,332.8 "
   id="polygon826" />

		<polygon
   style="fill:#db2828"
   points="43,332.8 59.9,298.9 26,298.9 "
   id="polygon828" />

	</g>
    <path
       style="fill:#3791d3;stroke-width:0.26458332"
       inkscape:connector-curvature="0"
       id="dienteCoronaTotal"
       d="m 7.9375,279.80207 c 4.206875,0 7.62,2.96334 7.62,6.61459 0,3.65125 -3.413125,6.61458 -7.62,6.61458 -4.206875,0 -7.62,-2.96333 -7.62,-6.61458 0,-3.65125 3.413125,-6.61459 7.62,-6.61459 m 0,-0.26458 c -4.339167,0 -7.884583,3.09562 -7.884583,6.87917 0,3.81 3.518958,6.87916 7.884583,6.87916 4.365625,0 7.884583,-3.09562 7.884583,-6.87916 0,-3.81 -3.545416,-6.87917 -7.884583,-6.87917 z" />
    <ellipse
       style="fill:#3791d3;stroke-width:0.26458332"
       id="dienteObturacion"
       cx="7.9375"
       cy="286.41666"
       rx="7.884583"
       ry="8.9958334" />
    <ellipse
       style="fill:#db2828;stroke-width:0.26458332"
       id="dienteCaries"
       cx="7.9375"
       cy="286.41666"
       rx="2.4606249"
       ry="2.8310416" />
    <path
       style="fill:#3791d3;stroke-width:0.26458332"
       inkscape:connector-curvature="0"
       id="dienteAusente"
       d="m 7.9374997,278.53207 c -4.339167,0 -7.88458265,3.54542 -7.88458265,7.88458 0,4.33917 3.54541565,7.88459 7.88458265,7.88459 4.3391673,0 7.8845833,-3.54542 7.8845833,-7.88459 0,-4.36562 -3.545416,-7.88458 -7.8845833,-7.88458 z m -7.61999965,7.85813 c 0,-4.18042 3.41312465,-7.62 7.61999965,-7.62 2.0637503,0 3.9158333,0.8202 5.2916673,2.14312 L 2.460625,291.68186 C 1.137708,290.30603 0.31750005,288.45395 0.31750005,286.3902 Z m 7.61999965,7.62 c -2.06375,0 -3.915833,-0.82021 -5.2916667,-2.14313 l 10.768542,-10.76854 c 1.322916,1.37583 2.143125,3.22792 2.143125,5.29167 0,4.20687 -3.413125,7.62 -7.6200003,7.62 z" />
    <path
       style="fill:#82d6d8;stroke-width:0.26458332"
       inkscape:connector-curvature="0"
       id="dienteSano"
       d="m 3.2940605,291.18467 -2.59291665,-2.19604 c -0.26458333,-0.21166 -0.635,-0.0265 -0.635,0.29104 v 2.51355 c 0,0.13229 0.0529167,0.23812 0.13229167,0.3175 l 3.57187498,3.12208 c 0.4233333,0.37042 1.0847916,0.3175 1.4552083,-0.13229 L 15.729476,281.5803 c 0.05292,-0.0794 0.07938,-0.15875 0.07938,-0.26458 v -3.57188 c 0,-0.37042 -0.47625,-0.52917 -0.687917,-0.23812 L 4.7492688,290.99947 c -0.3704167,0.47625 -1.031875,0.52916 -1.4552083,0.1852 z" />
    <ellipse
       id="path4649"
       cx="7.9375"
       cy="286.41666"
       rx="7.7520452"
       ry="6.8014135"
       style="fill:none;stroke:#008de3;stroke-width:0.245;stroke-miterlimit:4;stroke-dasharray:2.94000004, 2.94000004;stroke-dashoffset:0;stroke-opacity:1" />
  </g>
</svg>
