<?xml version="1.0" encoding="UTF-8" standalone="no"?>
<svg xmlns:dc="http://purl.org/dc/elements/1.1/" xmlns:cc="http://creativecommons.org/ns#" xmlns:rdf="http://www.w3.org/1999/02/22-rdf-syntax-ns#" xmlns:svg="http://www.w3.org/2000/svg" xmlns="http://www.w3.org/2000/svg" xmlns:sodipodi="http://sodipodi.sourceforge.net/DTD/sodipodi-0.dtd" xmlns:inkscape="http://www.inkscape.org/namespaces/inkscape" width="60" height="80" viewBox="0 0 15.874999 21.166667" version="1.1" id="svg8" inkscape:version="0.91 r13725" sodipodi:docname="dienteNormal.svg">
	<defs id="defs2" />
	<sodipodi:namedview id="base" pagecolor="#ffffff" bordercolor="#666666" borderopacity="1.0" inkscape:pageopacity="0.0" inkscape:pageshadow="2" inkscape:zoom="5.6568542" inkscape:cx="10.023799" inkscape:cy="35.991718" inkscape:document-units="mm" inkscape:current-layer="layer1" showgrid="true" units="px" showguides="false" inkscape:window-width="1366" inkscape:window-height="705" inkscape:window-x="-8" inkscape:window-y="-8" inkscape:window-maximized="1" gridtolerance="10" inkscape:snap-text-baseline="false">
		<inkscape:grid type="xygrid" id="grid4500" />
	</sodipodi:namedview>
	<metadata id="metadata5">
		<rdf:RDF>
			<cc:Work rdf:about="">
				<dc:format>image/svg+xml</dc:format>
				<dc:type rdf:resource="http://purl.org/dc/dcmitype/StillImage" />
				<dc:title />
			</cc:Work>
		</rdf:RDF>
	</metadata> <g inkscape:label="Capa 1" inkscape:groupmode="layer" id="layer1" transform="translate(0,-275.83332)">
		<path style="fill:#ffffff;stroke:#000000;stroke-width:0.2;stroke-opacity:1;stroke-linecap:round;paint-order:markers fill stroke;stroke-linejoin:round" d="m 3.0876671,280.7124 c -0.021873,0.0176 -0.1107424,0.0958 -0.1415934,0.12196 0.02037,-0.0159 0.039379,-0.0329 0.059944,-0.0486 z m 1.6435039,7.94315 c -0.6027424,-0.58962 -0.9960673,-1.35471 -1.0270041,-2.24527 0.00169,-0.7902 0.2921288,-1.55921 0.8288898,-2.19469 -0.09197,-0.18513 -0.1767369,-0.35501 -0.273885,-0.55088 -0.6054648,-1.22076 -0.9429845,-1.98358 -1.3229167,-2.82205 -1.766234,1.3791 -2.79123037,3.41612 -2.79311101,5.56762 -4.237e-5,2.25961 1.10513171,4.27849 2.83858631,5.61206 0.3622349,-0.80054 0.9345491,-1.78709 1.5161864,-2.95981 z" id="z3" inkscape:connector-curvature="0" sodipodi:nodetypes="ccccccccccccc" />
		<path style="fill:#ffffff;stroke:#000000;stroke-width:0.2;stroke-miterlimit:4;stroke-dasharray:none;stroke-opacity:1;stroke-linecap:round;paint-order:markers fill stroke;stroke-linejoin:round" d="m 7.9530029,276.53105 c -5.9975374,-0.0829 -6.8586929,0.15234 -5.0167481,4.21732 a 7.7945373,7.2707428 0 0 1 0.1560629,-0.12764 7.7945373,7.2707428 0 0 1 0.633553,-0.42272 7.7945373,7.2707428 0 0 1 0.6759278,-0.36173 7.7945373,7.2707428 0 0 1 0.7110677,-0.29714 7.7945373,7.2707428 0 0 1 0.7394898,-0.22893 7.7945373,7.2707428 0 0 1 0.7601603,-0.15916 7.7945373,7.2707428 0 0 1 0.7735962,-0.0873 7.7945373,7.2707428 0 0 1 0.5513874,-0.0186 7.7945373,7.2707428 0 0 1 0.778247,0.0367 7.7945373,7.2707428 0 0 1 0.7704958,0.10852 7.7945373,7.2707428 0 0 1 0.7544753,0.17984 7.7945373,7.2707428 0 0 1 0.732255,0.24908 7.7945373,7.2707428 0 0 1 0.70125,0.31626 7.7945373,7.2707428 0 0 1 0.664559,0.37982 7.7945373,7.2707428 0 0 1 0.607715,0.43098 c 1.848567,-3.8901 0.942092,-4.13324 -4.9934941,-4.21525 z" id="z1" inkscape:connector-curvature="0" />
		<ellipse style="fill:#ffffff;stroke:#000000;stroke-width:0.2;stroke-opacity:1;stroke-linecap:round;paint-order:markers fill stroke;stroke-linejoin:round" id="z4" cx="7.9769149" cy="286.38959" rx="4.2333331" ry="3.7041669" />
		<path inkscape:connector-curvature="0" id="z7" d="m 7.9170143,296.23764 c -5.997537,0.0829 -6.858693,-0.15234 -5.016748,-4.21732 a 7.7945373,7.2707428 0 0 0 0.156063,0.12764 7.7945373,7.2707428 0 0 0 0.633553,0.42272 7.7945373,7.2707428 0 0 0 0.675928,0.36173 7.7945373,7.2707428 0 0 0 0.711068,0.29714 7.7945373,7.2707428 0 0 0 0.739489,0.22893 7.7945373,7.2707428 0 0 0 0.760161,0.15916 7.7945373,7.2707428 0 0 0 0.773596,0.0873 7.7945373,7.2707428 0 0 0 0.551387,0.0186 7.7945373,7.2707428 0 0 0 0.778247,-0.0367 7.7945373,7.2707428 0 0 0 0.770496,-0.10852 7.7945373,7.2707428 0 0 0 0.7544757,-0.17984 7.7945373,7.2707428 0 0 0 0.732255,-0.24908 7.7945373,7.2707428 0 0 0 0.701249,-0.31626 7.7945373,7.2707428 0 0 0 0.664559,-0.37982 7.7945373,7.2707428 0 0 0 0.607715,-0.43098 c 1.848567,3.8901 0.942092,4.13324 -4.9934937,4.21525 z" style="fill:#ffffff;stroke:#000000;stroke-width:0.2;stroke-miterlimit:4;stroke-dasharray:none;stroke-opacity:1;stroke-linecap:round;paint-order:markers fill stroke;stroke-linejoin:round" />
		<path inkscape:connector-curvature="0" id="z2" d="m 7.9374997,279.13945 a 7.7945373,7.2707428 0 0 0 -0.551387,0.0186 7.7945373,7.2707428 0 0 0 -0.773596,0.0873 7.7945373,7.2707428 0 0 0 -0.760161,0.15916 7.7945373,7.2707428 0 0 0 -0.739489,0.22893 7.7945373,7.2707428 0 0 0 -0.711068,0.29714 7.7945373,7.2707428 0 0 0 -0.675928,0.36173 7.7945373,7.2707428 0 0 0 -0.633553,0.42272 7.7945373,7.2707428 0 0 0 -0.156063,0.12764 c 0.379932,0.83847 0.717452,1.60129 1.322917,2.82205 0.09715,0.19587 0.181919,0.36574 0.273885,0.55087 a 4.233333,3.7041669 0 0 1 3.404443,-1.50947 4.233333,3.7041669 0 0 1 3.3522513,1.44591 c 0.06956,-0.13245 0.131785,-0.24973 0.204121,-0.38758 0.663258,-1.26395 1.048053,-2.07248 1.452625,-2.92385 a 7.7945373,7.2707428 0 0 0 -0.607715,-0.43098 7.7945373,7.2707428 0 0 0 -0.664559,-0.37982 7.7945373,7.2707428 0 0 0 -0.701249,-0.31626 7.7945373,7.2707428 0 0 0 -0.732255,-0.24908 7.7945373,7.2707428 0 0 0 -0.7544763,-0.17984 7.7945373,7.2707428 0 0 0 -0.770496,-0.10852 7.7945373,7.2707428 0 0 0 -0.778247,-0.0367 z" style="fill:#ffffff;stroke:#000000;stroke-width:0.2;stroke-miterlimit:4;stroke-dasharray:none;stroke-opacity:1;stroke-linecap:round;paint-order:markers fill stroke;stroke-linejoin:round" />
		<path style="fill:#ffffff;stroke:#000000;stroke-width:0.2;stroke-miterlimit:4;stroke-dasharray:none;stroke-opacity:1;stroke-linecap:round;paint-order:markers fill stroke;stroke-linejoin:round" d="m 7.941609,293.66813 c -0.1766857,-1.3e-4 -0.3533112,-0.006 -0.5295449,-0.0186 -0.2489942,-0.0171 -0.4969545,-0.0462 -0.7429516,-0.0873 -0.245929,-0.0412 -0.4895828,-0.0943 -0.7300488,-0.15916 -0.2405131,-0.0648 -0.4775411,-0.14117 -0.7101957,-0.22893 -0.2325912,-0.0879 -0.4605094,-0.1871 -0.6829005,-0.29714 -0.2224584,-0.10999 -0.4391132,-0.23072 -0.6491525,-0.36173 -0.2099454,-0.13097 -0.4130176,-0.27205 -0.6084561,-0.42272 -0.050541,-0.0419 -0.1005061,-0.0845 -0.1498809,-0.12764 0.3648818,-0.83847 0.6890316,-1.60129 1.2705124,-2.82205 0.093302,-0.19587 0.1747126,-0.36574 0.2630356,-0.55087 0.7649704,0.94761 1.9784799,1.50785 3.269583,1.50947 1.2612183,-9.2e-4 2.450553,-0.53507 3.219458,-1.44591 0.06681,0.13245 0.126565,0.24973 0.196036,0.38758 0.636984,1.26395 1.006536,2.07248 1.395082,2.92385 -0.187183,0.15283 -0.381964,0.29667 -0.583642,0.43098 -0.206091,0.13686 -0.419101,0.26363 -0.638234,0.37982 -0.218923,0.11626 -0.443694,0.22181 -0.67347,0.31626 -0.229993,0.0944 -0.464702,0.1775 -0.703248,0.24908 -0.2382938,0.0716 -0.4801253,0.13166 -0.7245891,0.17984 -0.2446411,0.0481 -0.4916078,0.0843 -0.7399745,0.10852 -0.2483537,0.0243 -0.4978048,0.0366 -0.7474184,0.0367 z" id="z6" inkscape:connector-curvature="0" sodipodi:nodetypes="ccccccccccccccccccccccc" />
		<path sodipodi:nodetypes="ccccccccccccc" inkscape:connector-curvature="0" id="z5" d="m 12.804571,280.7124 c 0.02187,0.0176 0.110742,0.0958 0.141593,0.12196 -0.02037,-0.0159 -0.03938,-0.0329 -0.05994,-0.0486 z m -1.643504,7.94315 c 0.602742,-0.58962 0.996067,-1.35471 1.027004,-2.24527 -0.0017,-0.7902 -0.292129,-1.55921 -0.82889,-2.19469 0.09197,-0.18513 0.176737,-0.35501 0.273885,-0.55088 0.605465,-1.22076 0.942985,-1.98358 1.322917,-2.82205 1.766234,1.3791 2.79123,3.41612 2.793111,5.56762 4.2e-5,2.25961 -1.105132,4.27849 -2.838586,5.61206 -0.362235,-0.80054 -0.934549,-1.78709 -1.516187,-2.95981 z" style="fill:#ffffff;stroke:#000000;stroke-width:0.2;stroke-opacity:1;stroke-linecap:round;paint-order:markers fill stroke;stroke-linejoin:round" />
		<text xml:space="preserve" style="font-style:normal;font-weight:normal;font-size:27.84042168px;line-height:125%;font-family:sans-serif;letter-spacing:0px;word-spacing:0px;opacity:1;fill:#ff0000;fill-opacity:1;stroke:none;stroke-width:0.18750001;stroke-linecap:butt;stroke-linejoin:miter;stroke-miterlimit:4;stroke-dasharray:none;stroke-opacity:1" x="1.2096956" y="248.22733" id="dienteExodoncia" sodipodi:linespacing="125%" transform="scale(0.84015752,1.190253)">
			<tspan sodipodi:role="line" id="tspan3351" x="1.2096956" y="248.22733">x</tspan>
		</text>
		<text xml:space="preserve" style="font-style:normal;font-weight:normal;font-size:21.57991409px;line-height:125%;font-family:sans-serif;letter-spacing:0px;word-spacing:0px;fill:#ff0000;fill-opacity:1;stroke:none;stroke-width:1px;stroke-linecap:butt;stroke-linejoin:miter;stroke-opacity:1;" x="1.7418071" y="257.80377" id="dientePErupcionado" sodipodi:linespacing="125%" transform="scale(0.87240099,1.1462619)">
			<tspan sodipodi:role="line" id="tspan4155" x="1.7418071" y="257.80377">A</tspan>
		</text> <g transform="matrix(0.87240098,0,0,1.1462619,18.457225,0.71356312)" style="font-style:normal;font-weight:normal;font-size:21.57991409px;line-height:125%;font-family:sans-serif;letter-spacing:0px;word-spacing:0px;fill:#ff0000;fill-opacity:1;stroke:none;stroke-width:1px;stroke-linecap:butt;stroke-linejoin:miter;stroke-opacity:1" id="dienteErupcion">
			<path d="m -4.9563765,257.0925 -2.2233212,0 -2.1683664,-6.14786 -5.5125589,-0.0102 -2.18177,6.15806 -2.11795,0 5.71109,-15.68969 2.781786,0 z m -4.4044941,-6.16419 -2.7501744,-7.70259 -2.760712,7.70259 z" id="path4176" inkscape:connector-curvature="0" sodipodi:nodetypes="ccccccccccccc" />
		</g>
		<text xml:space="preserve" style="font-style:normal;font-weight:normal;font-size:25.53623962px;line-height:125%;font-family:sans-serif;letter-spacing:0px;word-spacing:0px;fill:#ff0000;fill-opacity:1;stroke:none;stroke-width:1px;stroke-linecap:butt;stroke-linejoin:miter;stroke-opacity:1" x="-0.78114784" y="301.16718" id="dienteProvicional" sodipodi:linespacing="125%" transform="scale(1.0190898,0.98126783)">
			<tspan sodipodi:role="line" id="tspan4180" x="-0.78114784" y="301.16718">P</tspan>
		</text>
		<text xml:space="preserve" style="font-style:normal;font-weight:normal;font-size:13.01118088px;line-height:125%;font-family:sans-serif;letter-spacing:0px;word-spacing:0px;fill:#ff0700;fill-opacity:1;stroke:none;stroke-width:1px;stroke-linecap:butt;stroke-linejoin:miter;stroke-opacity:1" x="12.933396" y="159.4023" id="dienteExtraido" sodipodi:linespacing="125%" transform="scale(0.53928281,1.8543146)">
			<tspan sodipodi:role="line" id="tspan4184" x="12.933396" y="159.4023">l</tspan>
		</text>
		<path style="opacity:1;fill:#0000ff;fill-opacity:1;stroke-width:0.70866144;stroke-miterlimit:4;stroke-dasharray:none" d="m 0.24094353,285.62428 0.0231796,0.39619 15.29986287,0 -0.02318,-0.39619 -15.29986353,0 z m 0.0705856,1.18856 0.0231796,0.39619 15.29934827,0 -0.02318,-0.39619 -15.2993489,0 z" id="dienteProtesisTotal" inkscape:connector-curvature="0" />
		<path style="opacity:0.98;fill:#ff8500;fill-opacity:1;stroke-width:0.70866144;stroke-miterlimit:4;stroke-dasharray:none" d="m 0.24094052,285.62428 0.02318,0.39619 15.29986348,0 -0.02318,-0.39619 -15.29986248,0 z m 0.07059,1.18856 0.02318,0.39619 15.29934848,0 -0.02318,-0.39619 -15.29934848,0 z" id="dienteProtesisRemovible" inkscape:connector-curvature="0"/>
		<path style="opacity:0.98000004;fill:#00be2b;fill-opacity:1;stroke:none;stroke-width:0.70866144;stroke-miterlimit:4;stroke-dasharray:none" d="m 0.2267352,286.1361 0,0.56111 4.1255803,0 0,-0.56111 -4.1255803,0 z m 11.2959478,0 0,0.56111 4.125581,0 0,-0.56111 -4.125581,0 z" id="dienteSinErupcionar" inkscape:connector-curvature="0" />
		<text xml:space="preserve" style="font-style:normal;font-weight:normal;font-size:23.43538284px;line-height:125%;font-family:sans-serif;letter-spacing:0px;word-spacing:0px;fill:#0000ff;fill-opacity:1;stroke:none;stroke-width:1px;stroke-linecap:butt;stroke-linejoin:miter;stroke-opacity:1;" x="0.12967761" y="284.71082" id="dienteSellante" sodipodi:linespacing="125%" transform="scale(0.9642996,1.0370221)">
			<tspan sodipodi:role="line" id="tspan4299" x="0.12967761" y="284.71082">S</tspan>
		</text>
		<path style="opacity:0.98000004;fill:#ffff00;fill-opacity:1;stroke:none;stroke-width:0.16526595;stroke-miterlimit:4;stroke-dasharray:none;stroke-opacity:1" d="m 0.1761363,282.38742 0.0178555,8.05851 a 5.3322595,4.0291561 0 0 0 4.6241438,-2.01785 5.3322595,4.0291561 0 0 0 0.5721474,-1.0976 l 5.094429,0 a 5.3322595,4.0291561 0 0 0 0.572147,1.0976 5.3322595,4.0291561 0 0 0 4.624144,2.01785 l 0.01786,-8.05851 a 5.3322595,4.0291561 0 0 0 -4.633404,2.00598 5.3322595,4.0291561 0 0 0 -0.575455,1.10947 l -5.1050109,0 A 5.3322595,4.0291561 0 0 0 4.8095333,284.3934 5.3322595,4.0291561 0 0 0 0.17612883,282.38742 Z" id="dienteProtesisFija" inkscape:connector-curvature="0" />
		<path style="opacity:1;fill:#81817e;fill-opacity:1;stroke:none;stroke-width:0.15277502;stroke-miterlimit:4;stroke-dasharray:none;stroke-opacity:1" d="m 5.3638244,276.31306 1.1210044,1.32354 0,15.65756 2.6400825,0 0,-15.44847 0.033517,-0.0396 1.2643527,-1.49308 -2.5292207,0 -2.5297359,0 z m 1.180818,17.00314 0.6301136,1.53943 0.6301145,1.53941 0.6301135,-1.53941 0.6301135,-1.53943 -1.260227,0 -1.2602281,0 z" id="dienteImplante" inkscape:connector-curvature="0"/>
	</g>
</svg>